# xmcd
#
# Track frame offsets:
#	150
#	15593
#	27997
#	42186
#	55924
#	68453
#	79315
#	93145
#	110680
#	125243
#	139787
#	154299
#
# Disc length: 2284 seconds
#
# Revision: 1
# Processed by: cddbd v1.5.2PL0 Copyright (c) Steve Scherf et al.
# Submitted via: audiograbber 1.83.01
#
DISCID=9d08ea0c
DTITLE=Mieke - Mieke zingt Dolly Parton
DYEAR=1900
DGENRE=Country
TTITLE0=Hartenbreker (Heartbreker)
TTITLE1=Voor Vader (To Daddy)
TTITLE2=De Bonte Lapjemantel (Coat Of Many Colours)
TTITLE3=Als Ik Ga (Always Love you)
TTITLE4=Jolien (Jolene)
TTITLE5=Bloem En Bij (Love Is Like A Butterfly)
TTITLE6=Vertel Het Me Liever Niet (I Relally Don't WantYou To Know)
TTITLE7=Het Licht Van Mijn Twee Ogen (You Are)
TTITLE8='t  Is Niet Goed Ook Niet Slecht (It's All Wwrong But It's Alright)
TTITLE9=Liedjesman (Sweet Music Man)
TTITLE10=De Weg Die Iki Zoek (The Seeker)
TTITLE11=Voor Altijd Samen (Christmas Without You)
EXTD=
EXTT0=
EXTT1=
EXTT2=
EXTT3=
EXTT4=
EXTT5=
EXTT6=
EXTT7=
EXTT8=
EXTT9=
EXTT10=
EXTT11=
PLAYORDER=
